<svg width="18" height="25" viewBox="0 0 18 25" fill="none" xmlns="http://www.w3.org/2000/svg">
<path d="M16.4083 3.96396C16.0113 3.96396 15.812 3.65892 15.6874 3.2273C15.265 1.60068 14.718 1.11796 14.3949 1.11796C14.0718 1.11796 13.5741 1.72804 13.0278 2.99852C12.3062 4.5992 11.8215 6.34218 11.3738 8.01912L14.2172 8.01519C14.3911 8.37055 14.2503 9.1072 13.8272 9.31083H11.0168C10.0975 12.4611 9.32351 15.4981 8.40339 18.4707C7.88101 20.1476 7.3094 21.7483 6.58854 22.7641C5.79305 23.9072 4.30132 25 2.51109 25C1.24324 25 0 24.3907 0 23.044C0 22.2051 0.845493 21.4181 1.51635 21.4181C1.80562 21.4063 2.07565 21.5636 2.21259 21.8246C2.83421 22.9677 3.43121 23.6281 3.70432 23.6281C3.9782 23.6281 4.20208 23.2468 4.64906 21.5958L7.91255 9.31318L5.56456 9.31004C5.39069 8.777 5.63842 8.13783 5.93615 8.01047H8.27337C8.72112 6.53716 9.24888 5.03082 9.99436 3.68408C11.113 1.62662 12.9032 0 15.3643 0C17.2291 0 18 0.915123 18 2.0834C17.9746 3.32872 16.906 3.96396 16.4083 3.96396Z" fill="#474A56"/>
</svg>
