<svg width="27" height="27" viewBox="0 0 27 27" fill="none" xmlns="http://www.w3.org/2000/svg">
<path d="M26.8958 24.5319V26.2129H20.1982L17.7397 25.3724L17.6294 25.3369L20.1982 24.5319H26.8958Z" fill="#737EE6"/>
<path d="M26.8958 25.3724V26.2129H20.1981L17.7396 25.3724H26.8958Z" fill="#615AD3"/>
<path d="M16.9044 25.35L16.8098 25.3724L13.4479 26.2129H6.69766L2.55298 25.477L3.00994 25.3724L6.69766 24.5319H13.4479L16.9044 25.35Z" fill="#FFB64C"/>
<path d="M3.00994 25.3724H16.8098L13.4479 26.2129H6.69766L2.55298 25.477L3.00994 25.3724Z" fill="#FF9100"/>
<path d="M0 24.5319H6.69768V26.2129H0V24.5319Z" fill="#61D7A8"/>
<path d="M0 25.3724H6.69768V26.2129H0V25.3724Z" fill="#00AB94"/>
<path d="M13.4479 24.5319H20.1981V26.2129H13.4479V24.5319Z" fill="#FF637B"/>
<path d="M13.4479 25.3724H20.1981V26.2129H13.4479V25.3724Z" fill="#E63950"/>
<path d="M4.91696 21.2382C5.58935 21.5271 6.37732 21.2172 6.67149 20.5396L8.04254 17.3457H18.8639L20.235 20.5396C20.4503 21.0439 20.9704 21.6007 21.9895 21.2382C22.6829 20.9913 22.9823 20.1613 22.6881 19.4837L14.6719 0.808975C14.4618 0.320438 13.9838 0 13.448 0C12.9122 0 12.4341 0.320438 12.224 0.808975L4.2183 19.4889C3.92413 20.1666 4.23931 20.9493 4.91696 21.2382ZM13.448 4.72252L17.7135 14.6771H9.18246L13.448 4.72252Z" fill="#474A56"/>
</svg>
