<svg width="36" height="21" viewBox="0 0 36 21" fill="none" xmlns="http://www.w3.org/2000/svg">
<path d="M30.0604 0H5.0896C2.29009 0 0 2.2905 0 5.0896V15.2448C0 18.0443 2.29051 20.3344 5.0896 20.3344H30.0604C32.8599 20.3344 35.15 18.0439 35.15 15.2448V5.0896C35.1504 2.29009 32.8599 0 30.0604 0ZM21.0864 3.80016C21.0864 3.38163 21.4198 3.04409 21.8387 3.04409H23.5963C24.0152 3.04409 24.3465 3.38122 24.3465 3.80016V5.5577C24.3465 5.97663 24.0152 6.30426 23.5963 6.30426H21.8387C21.4198 6.30426 21.0864 5.97663 21.0864 5.5577L21.0864 3.80016ZM21.1884 8.50263C21.6073 8.50263 21.9201 8.87034 21.9201 9.28927V11.0468C21.9201 11.4657 21.6073 11.8384 21.1884 11.8384H19.4309C19.0119 11.8384 18.6599 11.4657 18.6599 11.0468V9.28927C18.6599 8.87075 19.0119 8.50263 19.4309 8.50263H21.1884ZM15.8551 3.80016C15.8551 3.38163 16.2195 3.04409 16.638 3.04409H18.3955C18.8145 3.04409 19.1148 3.38122 19.1148 3.80016V5.5577C19.1148 5.97663 18.8145 6.30426 18.3955 6.30426H16.638C16.219 6.30426 15.8551 5.97663 15.8551 5.5577V3.80016ZM15.9881 8.50263C16.407 8.50263 16.7648 8.87034 16.7648 9.28927V11.0468C16.7648 11.4657 16.407 11.8384 15.9881 11.8384H14.2305C13.8116 11.8384 13.5051 11.4657 13.5051 11.0468V9.28927C13.5051 8.87075 13.812 8.50263 14.2305 8.50263H15.9881ZM10.7758 3.80016C10.7758 3.38163 11.1154 3.04409 11.5343 3.04409H13.2919C13.7108 3.04409 14.036 3.38122 14.036 3.80016V5.5577C14.036 5.97663 13.7108 6.30426 13.2919 6.30426H11.5343C11.1154 6.30426 10.7758 5.97663 10.7758 5.5577V3.80016ZM6.43027 6.30426C6.01134 6.30426 5.69652 5.97663 5.69652 5.5577V3.80016C5.69652 3.38163 6.01175 3.04409 6.43027 3.04409H8.18781C8.60675 3.04409 8.95627 3.38122 8.95627 3.80016V5.5577C8.95627 5.97663 8.60675 6.30426 8.18781 6.30426H6.43027ZM8.34977 11.0468V9.28927C8.34977 8.87075 8.70797 8.50263 9.12649 8.50263H10.884C11.303 8.50263 11.6095 8.87034 11.6095 9.28927V11.0468C11.6095 11.4657 11.303 11.8384 10.884 11.8384H9.12649C8.70797 11.8384 8.34977 11.4657 8.34977 11.0468ZM24.3461 16.5359C24.3461 16.9549 24.0148 17.2969 23.5958 17.2969H22.8299H21.8383H13.2919H12.4437H11.5343C11.1154 17.2969 10.7758 16.9549 10.7758 16.5359V14.7784C10.7758 14.3599 11.1154 14.0368 11.5343 14.0368H12.4437H13.2919H21.8387H22.8303H23.5963C24.0152 14.0368 24.3465 14.3594 24.3465 14.7784V16.5359H24.3461ZM27.0754 11.0468C27.0754 11.4657 26.7114 11.8384 26.2925 11.8384H24.5349C24.116 11.8384 23.7396 11.4657 23.7396 11.0468V9.28927C23.7396 8.87075 24.116 8.50263 24.5349 8.50263H26.2925C26.7114 8.50263 27.0754 8.87034 27.0754 9.28927L27.0754 11.0468ZM29.4254 5.5577C29.4254 5.97663 29.1188 6.30426 28.6999 6.30426H26.9424C26.5234 6.30426 26.1656 5.97663 26.1656 5.5577V3.80015C26.1656 3.38163 26.5238 3.04409 26.9424 3.04409H28.6999C29.1188 3.04409 29.4254 3.38122 29.4254 3.80015V5.5577Z" fill="#474A56"/>
</svg>
