<svg width="31" height="31" viewBox="0 0 31 31" fill="none" xmlns="http://www.w3.org/2000/svg">
<path d="M8.8878 20.2761C8.76586 19.9546 8.66579 19.697 8.58596 19.5051C8.50613 19.3132 8.40934 19.1322 8.29396 18.9659C8.17859 18.7981 8.02712 18.6603 7.83902 18.5547C7.65092 18.4481 7.41689 18.3945 7.13583 18.3945C6.8597 18.3945 6.62785 18.4481 6.43975 18.5547C6.2522 18.6603 6.10073 18.8003 5.98536 18.9725C5.86943 19.1442 5.76117 19.3602 5.65891 19.621C5.55666 19.8818 5.46917 20.1049 5.39754 20.2898L2.84998 26.7557C2.74608 27.0144 2.67117 27.215 2.62579 27.3599C2.58095 27.5054 2.55798 27.6448 2.55798 27.7815C2.55798 28.0167 2.65531 28.2266 2.84998 28.4125C3.04464 28.5985 3.26938 28.6914 3.52255 28.6914C3.8211 28.6914 4.036 28.6039 4.16723 28.4295C4.29846 28.2556 4.45758 27.9188 4.64295 27.4201L5.11867 26.1438H9.16612L9.64184 27.3933C9.70472 27.5469 9.78127 27.7252 9.86931 27.9264C9.95735 28.1282 10.0405 28.278 10.1176 28.3748C10.1947 28.4716 10.2893 28.5487 10.4024 28.6056C10.5156 28.6624 10.6512 28.6909 10.8098 28.6909C11.0816 28.6909 11.3134 28.5935 11.5059 28.4016C11.6984 28.2091 11.7941 27.9981 11.7941 27.7673C11.7941 27.5453 11.6918 27.1893 11.4879 26.7005L8.8878 20.2761ZM5.64852 24.6292L7.12216 20.5205L8.62314 24.6292H5.64852Z" fill="#474A56"/>
<path d="M28.9905 25.2345L24.2934 13.6335C24.0731 13.0528 23.891 12.5886 23.7477 12.2413C23.6045 11.8941 23.4289 11.5693 23.2206 11.2664C23.0117 10.964 22.7378 10.7163 22.3988 10.5255C22.0592 10.333 21.636 10.2362 21.1296 10.2362C20.6304 10.2362 20.2116 10.3335 19.872 10.5255C19.533 10.7168 19.2596 10.9689 19.0507 11.2795C18.8418 11.5901 18.6466 11.98 18.4623 12.4513C18.278 12.9205 18.1206 13.324 17.9904 13.6587L13.3918 25.3335C13.2037 25.7994 13.0681 26.1635 12.9872 26.4249C12.9051 26.6868 12.8641 26.9395 12.8641 27.1855C12.8641 27.6104 13.0391 27.991 13.3918 28.3261C13.7434 28.6613 14.148 28.8292 14.6057 28.8292C15.1454 28.8292 15.5331 28.6723 15.7715 28.3573C16.0083 28.0424 16.2942 27.4343 16.6289 26.5365L17.4874 24.2295H24.7965L25.655 26.4861C25.7693 26.765 25.906 27.0854 26.0651 27.4496C26.2253 27.8138 26.3735 28.0828 26.5129 28.2589C26.6518 28.4339 26.8235 28.5728 27.028 28.6756C27.232 28.7784 27.4775 28.8292 27.764 28.8292C28.254 28.8292 28.6728 28.6553 29.0211 28.3081C29.3683 27.9598 29.5422 27.5776 29.5422 27.1609C29.5422 26.7596 29.3585 26.1181 28.9905 25.2345ZM18.4437 21.4949L21.1045 14.0753L23.8144 21.4949H18.4437Z" fill="#474A56"/>
</svg>
