<svg width="27" height="19" viewBox="0 0 27 19" fill="none" xmlns="http://www.w3.org/2000/svg">
<path d="M6.32981 10.0399C6.20787 9.71836 6.10781 9.46082 6.02798 9.26889C5.94814 9.07696 5.85136 8.89597 5.73598 8.72974C5.62061 8.56187 5.46914 8.42407 5.28104 8.31854C5.09294 8.21191 4.85891 8.15833 4.57785 8.15833C4.30171 8.15833 4.06987 8.21191 3.88177 8.31854C3.69421 8.42407 3.54275 8.56405 3.42737 8.7363C3.31145 8.90799 3.20318 9.12398 3.10093 9.38481C2.99868 9.64563 2.91119 9.86873 2.83956 10.0536L0.291994 16.5195C0.188101 16.7782 0.113189 16.9788 0.0678038 17.1237C0.0229658 17.2692 0 17.4086 0 17.5453C0 17.7804 0.0973312 17.9904 0.291994 18.1763C0.486656 18.3622 0.711393 18.4552 0.964564 18.4552C1.26312 18.4552 1.47801 18.3677 1.60925 18.1933C1.74048 18.0194 1.8996 17.6826 2.08497 17.1839L2.56069 15.9076H6.60814L7.08386 17.1571C7.14674 17.3107 7.22329 17.489 7.31133 17.6902C7.39936 17.892 7.48248 18.0418 7.55958 18.1386C7.63668 18.2354 7.73127 18.3125 7.84446 18.3694C7.95765 18.4262 8.09326 18.4547 8.25183 18.4547C8.52359 18.4547 8.75544 18.3573 8.94791 18.1654C9.14039 17.9729 9.23608 17.7619 9.23608 17.5311C9.23608 17.3091 9.13383 16.9531 8.92987 16.4643L6.32981 10.0399ZM3.09054 14.393L4.56418 10.2843L6.06516 14.393H3.09054Z" fill="#474A56"/>
<path d="M26.4325 14.9983L21.7355 3.3973C21.5151 2.81659 21.333 2.35235 21.1898 2.00513C21.0465 1.65791 20.871 1.33311 20.6626 1.03018C20.4538 0.727798 20.1798 0.480095 19.8408 0.28926C19.5012 0.0967851 19.078 0 18.5717 0C18.0724 0 17.6536 0.0973319 17.314 0.28926C16.975 0.480642 16.7016 0.732719 16.4927 1.0433C16.2838 1.35389 16.0886 1.74376 15.9043 2.21511C15.7201 2.68426 15.5626 3.08781 15.4324 3.42245L10.8338 15.0973C10.6457 15.5632 10.5101 15.9273 10.4292 16.1887C10.3472 16.4506 10.3062 16.7032 10.3062 16.9493C10.3062 17.3742 10.4811 17.7547 10.8338 18.0899C11.1854 18.4251 11.5901 18.593 12.0477 18.593C12.5874 18.593 12.9751 18.4361 13.2135 18.1211C13.4503 17.8061 13.7363 17.1981 14.0709 16.3002L14.9294 13.9933H22.2385L23.097 16.2499C23.2113 16.5288 23.348 16.8492 23.5071 17.2134C23.6673 17.5776 23.8155 17.8466 23.9549 18.0227C24.0938 18.1977 24.2655 18.3365 24.47 18.4393C24.674 18.5421 24.9195 18.593 25.206 18.593C25.696 18.593 26.1148 18.4191 26.4631 18.0719C26.8104 17.7236 26.9842 17.3414 26.9842 16.9247C26.9842 16.5233 26.8005 15.8819 26.4325 14.9983ZM15.8857 11.2587L18.5465 3.83912L21.2565 11.2587H15.8857Z" fill="#474A56"/>
</svg>
