<svg width="35" height="35" viewBox="0 0 35 35" fill="none" xmlns="http://www.w3.org/2000/svg">
<path d="M6.15053 16.1851C7.17921 16.1851 8.12753 15.5588 8.48113 14.5953C9.78306 11.0143 13.2066 8.46105 17.2249 8.46105C22.3522 8.46105 26.5313 12.6362 26.5313 17.7588C26.5313 21.8055 23.9435 25.242 20.327 26.5267C19.3466 26.8639 18.7197 27.8113 18.7197 28.8551V32.5485C18.7197 34.1704 20.2627 35.3427 21.8379 34.9091C29.6334 32.8215 35.3233 25.5632 34.9857 17.0523C34.6321 7.85083 27.142 0.367649 17.9321 0.0143655C9.42945 -0.322859 2.19654 5.31362 0.0909575 13.0698C-0.343017 14.6435 0.830322 16.2012 2.45371 16.2012H6.1666L6.15053 16.1851Z" fill="white"/>
<path d="M9.2283 17.927H3.92243C1.75777 17.927 0 19.6831 0 21.8457V22.5449C0 24.7075 1.75777 26.4636 3.92243 26.4636H5.30587C7.47053 26.4636 9.2283 28.2197 9.2283 30.3823V31.0815C9.2283 33.2441 10.9861 35.0002 13.1507 35.0002C15.3154 35.0002 17.0732 33.2441 17.0732 31.0815V21.862C17.0732 19.6994 15.3154 17.9433 13.1507 17.9433H9.2283V17.927Z" fill="white"/>
</svg>
